#!OML:ASF F:\VICON\USERDATA\INSTALL\rory3\rory3.ASF
:FULLY-SPECIFIED
:DEGREES
99
root -0.08368958964164427 17.850412527228478 23.4335931184427 3.8330422353087648 -0.9883558537651786 -3.7357371937647397
lfemur -31.913944529861503 3.7695794193136294 -18.62654495956416
ltibia 77.51726914112749
lfoot 1.3701065207208551 -7.626717540729967
ltoes -13.345368643700796
rfemur -3.5755512094682977 4.2520791232998985 30.92502982354345
rtibia 81.1981844097409
rfoot -1.45341993190587 -9.90611705968851
rtoes -6.506627106233419
lowerback 14.546595023575279 2.045124087021652 2.9222491474372374
upperback -1.5645448082581819 3.382484221182416 1.1181729469136603
thorax -10.213109771045055 1.596161963660695 -0.9140007990970456
lowerneck -20.571341691619324 -4.213052527123543 -1.7756732960035468
upperneck 14.212094524578674 -5.609276630317184 1.9380849983608175
head 8.023768800366515 -2.5866643685521242 0.12295200445571841
lclavicle 7.933867048267558e-17 -3.5106937238697055e-16
lhumerus -49.466018677039116 -16.38778810532438 98.88851184335032
lradius 102.10237888249361
lwrist 34.02856056826668
lhand -23.703868985183043 2.507578584403378
lfingers 7.12502
lthumb 2.6325119016379097 31.977131097861086
rclavicle 7.933867063396883e-17 -3.5106937227467206e-16
rhumerus -50.714800853831974 8.742947511326848 -94.09692087809641
rradius 107.92371852178536
rwrist -11.217980528081966
rhand -16.887824313742946 41.66372519971849
rfingers 7.12502
rthumb 8.916145386412392 12.267704184034441
100
root -0.061811140540939224 17.851419884565107 23.932046529855988 3.762623561941977 -0.9622570250220714 -3.581454822603122
lfemur -31.373084002949824 3.525405575308353 -19.106925977523876
ltibia 74.89953723451325
lfoot 0.6112015988263926 -7.931608474421468
ltoes -15.40965232182721
rfemur -4.084330437058275 4.172729913570598 30.603961436735883
rtibia 83.16710012061448
rfoot -0.30213829735421704 -9.613519823494697
rtoes -7.077737403502138
lowerback 14.41556914717828 2.0735403546940345 2.827948969922503
upperback -1.6293848206754045 3.4007314494511185 1.016227546016791
thorax -10.02390412503627 1.6077057354176127 -1.1188600123176202
lowerneck -20.436120227946752 -4.287444862784443 -1.7610007466743567
upperneck 14.342881309479814 -5.736463020389338 1.9575962496122654
head 8.051723854226935 -2.6507270969546637 0.1326413341199943
lclavicle 7.933867048476257e-17 -3.5106937238596327e-16
lhumerus -49.63896479862869 -16.530868916070176 98.83330122990995
lradius 102.02603048166003
lwrist 33.99932334844559
lhand -23.556838706756576 2.4230843119109107
lfingers 7.12502
lthumb 2.7891089221953607 31.952960648909464
rclavicle 7.933867063393808e-17 -3.5106937227535033e-16
rhumerus -51.004932960862945 8.723993628788476 -93.9948933443709
rradius 108.00040111992149
rwrist -11.513391365306402
rhand -17.016226576331007 41.906336421570366
rfingers 7.12502
rthumb 8.754405689082734 12.51964933752431
101
root -0.06170969204264953 17.924151877734516 24.03196796931551 3.852628094382528 -0.9002714328311041 -3.6292345056135096
lfemur -30.825425668923533 3.2319425955158527 -19.335774846231576
ltibia 72.17938015863318
lfoot 1.5581104349224844 -7.618556541725898
ltoes -14.95721572341601
rfemur -4.678373670555672 4.102900001409809 30.507183181468157
rtibia 84.84581800697113
rfoot 0.9413972567203697 -9.427090237300847
rtoes -7.509331155657539
lowerback 14.324401467256878 2.083869503670214 2.881504853600078
upperback -1.7055417575194651 3.433002772391691 0.9853520631736876
thorax -9.903969656989867 1.624322403028405 -1.2439485317778545
lowerneck -20.21504465750562 -4.371380055850787 -1.7522335989246163
upperneck 14.430895388763327 -5.876110019437458 1.9892879327695954
head 8.055527002281206 -2.721979811139946 0.1480084643342819
lclavicle 7.933867048811649e-17 -3.5106937238394655e-16
lhumerus -49.71260036939183 -16.74951368463701 98.76887951220071
lradius 101.90975443657692
lwrist 33.94097551720724
lhand -23.441636865537507 2.440212406338094
lfingers 7.12502
lthumb 2.817009163405654 31.750460405857307
rclavicle 7.933867063260391e-17 -3.5106937227699895e-16
rhumerus -51.31872511590898 8.679258659435964 -93.90778846612218
rradius 108.08870787988256
rwrist -11.656268505549335
rhand -17.130616602743565 42.20449495557469
rfingers 7.12502
rthumb 8.52689702609497 12.666910699866357
102
root -0.042798200915851375 17.953993614281735 24.576612232339368 3.8716184528007274 -0.856789287951121 -3.5884999312879904
lfemur -30.12509380961246 2.9560278037076766 -19.66865702771023
ltibia 69.37068841570748
lfoot 1.7598215283679222 -6.773368750137944
ltoes -16.639861516340652
rfemur -5.34558902356593 3.9928991270616274 30.33200310194366
rtibia 86.63642349486625
rfoot 1.8038966810245367 -9.161346550931366
rtoes -8.280927609016057
lowerback 14.200213752967338 2.0970120752131503 2.9076814098837156
upperback -1.7889415760361946 3.45667169444679 0.9425781082352571
thorax -9.738204650555119 1.6411279838252022 -1.4213052055925834
lowerneck -19.965289415191023 -4.464563524184909 -1.768288460784148
upperneck 14.4942471723554 -6.029039434580369 2.0331906393757784
head 8.052621728736995 -2.796254032013388 0.16817027955138636
lclavicle 7.933867048630954e-17 -3.510693723858516e-16
lhumerus -49.768728931960965 -16.878576247335236 98.70903256983851
lradius 101.81437334523558
lwrist 33.838656242030495
lhand -23.521878747321633 2.068720969851603
lfingers 7.12502
lthumb 2.734549915283792 31.541907510586263
rclavicle 7.933867063040805e-17 -3.510693722792159e-16
rhumerus -51.68359864614005 8.597804027782633 -93.85819231210954
rradius 108.18981843774193
rwrist -11.724122064617454
rhand -17.18398843656224 42.23769114378228
rfingers 7.12502
rthumb 8.480796050015245 12.644801422467378
103
root -0.022098995026302276 17.988620308400247 25.007576934947828 3.8980928189188275 -0.7993194046790144 -3.55082059060176
lfemur -29.342952282130845 2.6814041938303137 -19.97548513147713
ltibia 66.5730672688565
lfoot 1.7214770806800284 -6.336897348241295
ltoes -19.313285162658424
rfemur -6.069744687323862 3.8598627037531594 30.15978230293824
rtibia 88.34339352146371
rfoot 2.6429697911368626 -8.759603875742014
rtoes -8.937453792253912
lowerback 14.062116245663944 2.103261878948536 2.9329509752767886
upperback -1.8501573449258215 3.4680705861661183 0.8951101877688934
thorax -9.562709354624438 1.6493046894511734 -1.5820649703167982
lowerneck -19.72052874625112 -4.557106144252816 -1.791029413103241
upperneck 14.528985332337232 -6.174050833224262 2.0799351217182394
head 8.049321966716771 -2.864242291018243 0.18797884951813798
lclavicle 7.933867048798855e-17 -3.5106937238502586e-16
lhumerus -49.62922106483971 -16.991481703736127 98.6413003180592
lradius 101.68586669731754
lwrist 33.71088379886805
lhand -23.506116447741825 1.958169112563323
lfingers 7.12502
lthumb 2.7888244706874663 31.397060196390612
rclavicle 7.933867063103562e-17 -3.5106937227923665e-16
rhumerus -52.03376206793276 8.498780662739133 -93.81608609865334
rradius 108.2812653952184
rwrist -11.802280650153733
rhand -17.240171547903195 42.37715781939495
rfingers 7.12502
rthumb 8.390102877513455 12.674191073851915
104
root -0.005953142452364085 18.00809737936519 25.25794215476739 3.9061940735010903 -0.7388107966401238 -3.508942169593265
lfemur -28.468151559214775 2.4270692838098515 -20.268001199973416
ltibia 63.74838047781371
lfoot 1.6846249925173957 -6.247335548587756
ltoes -22.846928699514674
rfemur -6.91133520943958 3.726593381251969 29.980509440624054
rtibia 90.07285971273465
rfoot 3.451593052266886 -8.16051040354614
rtoes -8.297734429844962
lowerback 13.946259322375345 2.1103506538573393 2.9384073886950617
upperback -1.9237932319230562 3.482903824912997 0.8712254580232818
thorax -9.438790145196206 1.6509304160856084 -1.7078110922952752
lowerneck -19.4736818178437 -4.63993729558988 -1.8188599055417394
upperneck 14.55513480896407 -6.306398708560187 2.133033124600047
head 8.024552240862093 -2.9274534805512222 0.21368929181327573
lclavicle 7.93386704898736e-17 -3.510693723839346e-16
lhumerus -49.303564490153285 -17.060857412176865 98.6184435424295
lradius 101.52072236677547
lwrist 33.6272948902296
lhand -23.826176418371755 1.681184288121373
lfingers 7.12502
lthumb 2.751557589549982 31.384093784185758
rclavicle 7.933867062813953e-17 -3.5106937228187056e-16
rhumerus -52.373244373227614 8.375847810612326 -93.78772392518837
rradius 108.4023922087026
rwrist -11.986910685118527
rhand -17.292481363685688 42.46714431133828
rfingers 7.12502
rthumb 8.415271400293125 12.711858183162876
105
root 0.0009564017007302195 18.02153011090945 25.564995226414133 3.899091445753 -0.6870527516596727 -3.4722682501975592
lfemur -27.548246132746932 2.200040357565487 -20.53610956787652
ltibia 60.94582336699844
lfoot 1.3890947211225813 -6.656229680132944
ltoes -25.267499475813626
rfemur -7.831277888828119 3.62070820220651 29.808709138940316
rtibia 91.73339529019447
rfoot 4.100208611912272 -7.728496768682264
rtoes -9.292884478453345
lowerback 13.894030019113023 2.1146842185196224 2.8998608077906765
upperback -1.98013390448497 3.4857263723650473 0.8683597552559987
thorax -9.297064674661573 1.6635917781943428 -1.736666727457066
lowerneck -19.298799407650655 -4.711548791671911 -1.8582768936703917
upperneck 14.611431450500245 -6.429057666762331 2.1969243203734443
head 8.009808979188787 -2.9827314261967373 0.24507142821692457
lclavicle 7.93386704882324e-17 -3.510693723855087e-16
lhumerus -48.88564387009692 -17.101305184680363 98.61292682430737
lradius 101.40800016305784
lwrist 33.58682429110022
lhand -23.675017222216226 1.724683609943273
lfingers 7.12502
lthumb 2.87855110109561 31.522222319813135
rclavicle 7.933867062669689e-17 -3.510693722833119e-16
rhumerus -52.65118746602104 8.26788246587598 -93.77832602360233
rradius 108.50262695595893
rwrist -11.792919602516424
rhand -17.30128323611146 42.51323891142897
rfingers 7.12502
rthumb 8.398770420661831 12.617499064521423
106
root 0.003640723381901939 18.022204805468675 25.706279492053078 3.843212242829708 -0.6877681516075163 -3.4396672918352325
lfemur -26.54615035687086 2.04724908405396 -20.777433562786708
ltibia 58.18213204515035
lfoot 0.6322826503001444 -7.21978579618529
ltoes -27.59833405909751
rfemur -8.81425714738387 3.5372899732250858 29.65244024097175
rtibia 93.3195168540044
rfoot 4.634511430832295 -7.548844905230011
rtoes -10.795426279702411
lowerback 13.857647005393517 2.1372967019679114 2.8626378205826875
upperback -2.017946690450354 3.510604170581171 0.8684803407850515
thorax -9.177987470221284 1.686595359668662 -1.7823878936997992
lowerneck -19.173368844874485 -4.764824158790866 -1.9102163403284766
upperneck 14.616034978013914 -6.516493184940526 2.2616159983183373
head 8.024113897544565 -3.016052702934343 0.2701197955104567
lclavicle 7.933867048841263e-17 -3.5106937238572356e-16
lhumerus -48.308009130722716 -17.20272897951702 98.60924068384709
lradius 101.32941240297922
lwrist 33.52009308959874
lhand -23.797758934570343 1.6065142181087753
lfingers 7.12502
lthumb 2.8487168693936233 31.542341450779062
rclavicle 7.933867062706287e-17 -3.510693722834168e-16
rhumerus -52.915959363453304 8.137042777865597 -93.75545001800413
rradius 108.60799669759565
rwrist -11.781021458703542
rhand -17.296322735656496 42.44956266912028
rfingers 7.12502
rthumb 8.448226762799957 12.536926156193442
